<mxfile host="app.diagrams.net" modified="2023-05-21T20:36:08.190Z" agent="Mozilla/5.0 (Windows NT 10.0; Win64; x64) AppleWebKit/537.36 (KHTML, like Gecko) Chrome/113.0.0.0 Safari/537.36" etag="BnGOoPXDKluo9kyQdW-n" version="21.3.2" type="device">
  <diagram name="Page-1" id="LH60rEFVuk_ibwT4XKCd">
    <mxGraphModel dx="834" dy="1173" grid="1" gridSize="10" guides="1" tooltips="1" connect="1" arrows="1" fold="1" page="1" pageScale="1" pageWidth="827" pageHeight="1169" math="0" shadow="0">
      <root>
        <mxCell id="0" />
        <mxCell id="1" parent="0" />
        <mxCell id="oG5_mvqdqvmXoVqTaZC8-1" value="main" style="swimlane;fontStyle=1;align=center;verticalAlign=top;childLayout=stackLayout;horizontal=1;startSize=26;horizontalStack=0;resizeParent=1;resizeParentMax=0;resizeLast=0;collapsible=1;marginBottom=0;whiteSpace=wrap;html=1;" vertex="1" parent="1">
          <mxGeometry x="270" y="890" width="160" height="34" as="geometry" />
        </mxCell>
        <mxCell id="oG5_mvqdqvmXoVqTaZC8-3" value="" style="line;strokeWidth=1;fillColor=none;align=left;verticalAlign=middle;spacingTop=-1;spacingLeft=3;spacingRight=3;rotatable=0;labelPosition=right;points=[];portConstraint=eastwest;strokeColor=inherit;" vertex="1" parent="oG5_mvqdqvmXoVqTaZC8-1">
          <mxGeometry y="26" width="160" height="8" as="geometry" />
        </mxCell>
        <mxCell id="oG5_mvqdqvmXoVqTaZC8-5" value="CountriesHandler" style="swimlane;fontStyle=1;align=center;verticalAlign=top;childLayout=stackLayout;horizontal=1;startSize=26;horizontalStack=0;resizeParent=1;resizeParentMax=0;resizeLast=0;collapsible=1;marginBottom=0;whiteSpace=wrap;html=1;" vertex="1" parent="1">
          <mxGeometry x="20" y="280" width="220" height="268" as="geometry" />
        </mxCell>
        <mxCell id="oG5_mvqdqvmXoVqTaZC8-6" value="- countries: DataFrame" style="text;strokeColor=none;fillColor=none;align=left;verticalAlign=top;spacingLeft=4;spacingRight=4;overflow=hidden;rotatable=0;points=[[0,0.5],[1,0.5]];portConstraint=eastwest;whiteSpace=wrap;html=1;" vertex="1" parent="oG5_mvqdqvmXoVqTaZC8-5">
          <mxGeometry y="26" width="220" height="26" as="geometry" />
        </mxCell>
        <mxCell id="oG5_mvqdqvmXoVqTaZC8-7" value="" style="line;strokeWidth=1;fillColor=none;align=left;verticalAlign=middle;spacingTop=-1;spacingLeft=3;spacingRight=3;rotatable=0;labelPosition=right;points=[];portConstraint=eastwest;strokeColor=inherit;" vertex="1" parent="oG5_mvqdqvmXoVqTaZC8-5">
          <mxGeometry y="52" width="220" height="8" as="geometry" />
        </mxCell>
        <mxCell id="oG5_mvqdqvmXoVqTaZC8-31" value="+ __init__(): void" style="text;strokeColor=none;fillColor=none;align=left;verticalAlign=top;spacingLeft=4;spacingRight=4;overflow=hidden;rotatable=0;points=[[0,0.5],[1,0.5]];portConstraint=eastwest;whiteSpace=wrap;html=1;" vertex="1" parent="oG5_mvqdqvmXoVqTaZC8-5">
          <mxGeometry y="60" width="220" height="26" as="geometry" />
        </mxCell>
        <mxCell id="oG5_mvqdqvmXoVqTaZC8-32" value="+ readCountriesFile(type): void" style="text;strokeColor=none;fillColor=none;align=left;verticalAlign=top;spacingLeft=4;spacingRight=4;overflow=hidden;rotatable=0;points=[[0,0.5],[1,0.5]];portConstraint=eastwest;whiteSpace=wrap;html=1;" vertex="1" parent="oG5_mvqdqvmXoVqTaZC8-5">
          <mxGeometry y="86" width="220" height="26" as="geometry" />
        </mxCell>
        <mxCell id="oG5_mvqdqvmXoVqTaZC8-8" value="+ getUniqueCountries(): Series" style="text;strokeColor=none;fillColor=none;align=left;verticalAlign=top;spacingLeft=4;spacingRight=4;overflow=hidden;rotatable=0;points=[[0,0.5],[1,0.5]];portConstraint=eastwest;whiteSpace=wrap;html=1;" vertex="1" parent="oG5_mvqdqvmXoVqTaZC8-5">
          <mxGeometry y="112" width="220" height="26" as="geometry" />
        </mxCell>
        <mxCell id="oG5_mvqdqvmXoVqTaZC8-33" value="+ setupPrimaryKeys(Dataframe): void" style="text;strokeColor=none;fillColor=none;align=left;verticalAlign=top;spacingLeft=4;spacingRight=4;overflow=hidden;rotatable=0;points=[[0,0.5],[1,0.5]];portConstraint=eastwest;whiteSpace=wrap;html=1;" vertex="1" parent="oG5_mvqdqvmXoVqTaZC8-5">
          <mxGeometry y="138" width="220" height="26" as="geometry" />
        </mxCell>
        <mxCell id="oG5_mvqdqvmXoVqTaZC8-34" value="+ save(): void" style="text;strokeColor=none;fillColor=none;align=left;verticalAlign=top;spacingLeft=4;spacingRight=4;overflow=hidden;rotatable=0;points=[[0,0.5],[1,0.5]];portConstraint=eastwest;whiteSpace=wrap;html=1;" vertex="1" parent="oG5_mvqdqvmXoVqTaZC8-5">
          <mxGeometry y="164" width="220" height="26" as="geometry" />
        </mxCell>
        <mxCell id="oG5_mvqdqvmXoVqTaZC8-35" value="- _addPrimaryKey(Dataframe): void" style="text;strokeColor=none;fillColor=none;align=left;verticalAlign=top;spacingLeft=4;spacingRight=4;overflow=hidden;rotatable=0;points=[[0,0.5],[1,0.5]];portConstraint=eastwest;whiteSpace=wrap;html=1;" vertex="1" parent="oG5_mvqdqvmXoVqTaZC8-5">
          <mxGeometry y="190" width="220" height="26" as="geometry" />
        </mxCell>
        <mxCell id="oG5_mvqdqvmXoVqTaZC8-36" value="- _renameColumns(): void" style="text;strokeColor=none;fillColor=none;align=left;verticalAlign=top;spacingLeft=4;spacingRight=4;overflow=hidden;rotatable=0;points=[[0,0.5],[1,0.5]];portConstraint=eastwest;whiteSpace=wrap;html=1;" vertex="1" parent="oG5_mvqdqvmXoVqTaZC8-5">
          <mxGeometry y="216" width="220" height="26" as="geometry" />
        </mxCell>
        <mxCell id="oG5_mvqdqvmXoVqTaZC8-37" value="- _setNullForSQL(): void" style="text;strokeColor=none;fillColor=none;align=left;verticalAlign=top;spacingLeft=4;spacingRight=4;overflow=hidden;rotatable=0;points=[[0,0.5],[1,0.5]];portConstraint=eastwest;whiteSpace=wrap;html=1;" vertex="1" parent="oG5_mvqdqvmXoVqTaZC8-5">
          <mxGeometry y="242" width="220" height="26" as="geometry" />
        </mxCell>
        <mxCell id="oG5_mvqdqvmXoVqTaZC8-9" value="DemographicsHandler" style="swimlane;fontStyle=1;align=center;verticalAlign=top;childLayout=stackLayout;horizontal=1;startSize=26;horizontalStack=0;resizeParent=1;resizeParentMax=0;resizeLast=0;collapsible=1;marginBottom=0;whiteSpace=wrap;html=1;" vertex="1" parent="1">
          <mxGeometry x="260" y="280" width="230" height="400" as="geometry" />
        </mxCell>
        <mxCell id="oG5_mvqdqvmXoVqTaZC8-10" value="- fertility: Dataframe" style="text;strokeColor=none;fillColor=none;align=left;verticalAlign=top;spacingLeft=4;spacingRight=4;overflow=hidden;rotatable=0;points=[[0,0.5],[1,0.5]];portConstraint=eastwest;whiteSpace=wrap;html=1;" vertex="1" parent="oG5_mvqdqvmXoVqTaZC8-9">
          <mxGeometry y="26" width="230" height="26" as="geometry" />
        </mxCell>
        <mxCell id="oG5_mvqdqvmXoVqTaZC8-39" value="- birthDeath: Dataframe" style="text;strokeColor=none;fillColor=none;align=left;verticalAlign=top;spacingLeft=4;spacingRight=4;overflow=hidden;rotatable=0;points=[[0,0.5],[1,0.5]];portConstraint=eastwest;whiteSpace=wrap;html=1;" vertex="1" parent="oG5_mvqdqvmXoVqTaZC8-9">
          <mxGeometry y="52" width="230" height="26" as="geometry" />
        </mxCell>
        <mxCell id="oG5_mvqdqvmXoVqTaZC8-40" value="- area: Dataframe" style="text;strokeColor=none;fillColor=none;align=left;verticalAlign=top;spacingLeft=4;spacingRight=4;overflow=hidden;rotatable=0;points=[[0,0.5],[1,0.5]];portConstraint=eastwest;whiteSpace=wrap;html=1;" vertex="1" parent="oG5_mvqdqvmXoVqTaZC8-9">
          <mxGeometry y="78" width="230" height="26" as="geometry" />
        </mxCell>
        <mxCell id="oG5_mvqdqvmXoVqTaZC8-41" value="- midYearPopulation: Dataframe" style="text;strokeColor=none;fillColor=none;align=left;verticalAlign=top;spacingLeft=4;spacingRight=4;overflow=hidden;rotatable=0;points=[[0,0.5],[1,0.5]];portConstraint=eastwest;whiteSpace=wrap;html=1;" vertex="1" parent="oG5_mvqdqvmXoVqTaZC8-9">
          <mxGeometry y="104" width="230" height="26" as="geometry" />
        </mxCell>
        <mxCell id="oG5_mvqdqvmXoVqTaZC8-42" value="- midYearPopulation5Year: Dataframe" style="text;strokeColor=none;fillColor=none;align=left;verticalAlign=top;spacingLeft=4;spacingRight=4;overflow=hidden;rotatable=0;points=[[0,0.5],[1,0.5]];portConstraint=eastwest;whiteSpace=wrap;html=1;" vertex="1" parent="oG5_mvqdqvmXoVqTaZC8-9">
          <mxGeometry y="130" width="230" height="26" as="geometry" />
        </mxCell>
        <mxCell id="oG5_mvqdqvmXoVqTaZC8-43" value="- midYearPopulationAge: Dataframe" style="text;strokeColor=none;fillColor=none;align=left;verticalAlign=top;spacingLeft=4;spacingRight=4;overflow=hidden;rotatable=0;points=[[0,0.5],[1,0.5]];portConstraint=eastwest;whiteSpace=wrap;html=1;" vertex="1" parent="oG5_mvqdqvmXoVqTaZC8-9">
          <mxGeometry y="156" width="230" height="26" as="geometry" />
        </mxCell>
        <mxCell id="oG5_mvqdqvmXoVqTaZC8-44" value="- mortality: Dataframe" style="text;strokeColor=none;fillColor=none;align=left;verticalAlign=top;spacingLeft=4;spacingRight=4;overflow=hidden;rotatable=0;points=[[0,0.5],[1,0.5]];portConstraint=eastwest;whiteSpace=wrap;html=1;" vertex="1" parent="oG5_mvqdqvmXoVqTaZC8-9">
          <mxGeometry y="182" width="230" height="26" as="geometry" />
        </mxCell>
        <mxCell id="oG5_mvqdqvmXoVqTaZC8-45" value="- demographicsDfs: Dataframe[ ]" style="text;strokeColor=none;fillColor=none;align=left;verticalAlign=top;spacingLeft=4;spacingRight=4;overflow=hidden;rotatable=0;points=[[0,0.5],[1,0.5]];portConstraint=eastwest;whiteSpace=wrap;html=1;" vertex="1" parent="oG5_mvqdqvmXoVqTaZC8-9">
          <mxGeometry y="208" width="230" height="26" as="geometry" />
        </mxCell>
        <mxCell id="oG5_mvqdqvmXoVqTaZC8-11" value="" style="line;strokeWidth=1;fillColor=none;align=left;verticalAlign=middle;spacingTop=-1;spacingLeft=3;spacingRight=3;rotatable=0;labelPosition=right;points=[];portConstraint=eastwest;strokeColor=inherit;" vertex="1" parent="oG5_mvqdqvmXoVqTaZC8-9">
          <mxGeometry y="234" width="230" height="8" as="geometry" />
        </mxCell>
        <mxCell id="oG5_mvqdqvmXoVqTaZC8-12" value="+ __init__(): void" style="text;strokeColor=none;fillColor=none;align=left;verticalAlign=top;spacingLeft=4;spacingRight=4;overflow=hidden;rotatable=0;points=[[0,0.5],[1,0.5]];portConstraint=eastwest;whiteSpace=wrap;html=1;" vertex="1" parent="oG5_mvqdqvmXoVqTaZC8-9">
          <mxGeometry y="242" width="230" height="26" as="geometry" />
        </mxCell>
        <mxCell id="oG5_mvqdqvmXoVqTaZC8-46" value="+ readDemographicsFiles(): void" style="text;strokeColor=none;fillColor=none;align=left;verticalAlign=top;spacingLeft=4;spacingRight=4;overflow=hidden;rotatable=0;points=[[0,0.5],[1,0.5]];portConstraint=eastwest;whiteSpace=wrap;html=1;" vertex="1" parent="oG5_mvqdqvmXoVqTaZC8-9">
          <mxGeometry y="268" width="230" height="26" as="geometry" />
        </mxCell>
        <mxCell id="oG5_mvqdqvmXoVqTaZC8-47" value="+ getUniqueCountries(): Dataframe" style="text;strokeColor=none;fillColor=none;align=left;verticalAlign=top;spacingLeft=4;spacingRight=4;overflow=hidden;rotatable=0;points=[[0,0.5],[1,0.5]];portConstraint=eastwest;whiteSpace=wrap;html=1;" vertex="1" parent="oG5_mvqdqvmXoVqTaZC8-9">
          <mxGeometry y="294" width="230" height="26" as="geometry" />
        </mxCell>
        <mxCell id="oG5_mvqdqvmXoVqTaZC8-48" value="+ setupPrimaryKeys(Dataframe): void" style="text;strokeColor=none;fillColor=none;align=left;verticalAlign=top;spacingLeft=4;spacingRight=4;overflow=hidden;rotatable=0;points=[[0,0.5],[1,0.5]];portConstraint=eastwest;whiteSpace=wrap;html=1;" vertex="1" parent="oG5_mvqdqvmXoVqTaZC8-9">
          <mxGeometry y="320" width="230" height="26" as="geometry" />
        </mxCell>
        <mxCell id="oG5_mvqdqvmXoVqTaZC8-49" value="+ save(): void" style="text;strokeColor=none;fillColor=none;align=left;verticalAlign=top;spacingLeft=4;spacingRight=4;overflow=hidden;rotatable=0;points=[[0,0.5],[1,0.5]];portConstraint=eastwest;whiteSpace=wrap;html=1;" vertex="1" parent="oG5_mvqdqvmXoVqTaZC8-9">
          <mxGeometry y="346" width="230" height="26" as="geometry" />
        </mxCell>
        <mxCell id="oG5_mvqdqvmXoVqTaZC8-50" value="- _addPrimaryKey(): Dataframe" style="text;strokeColor=none;fillColor=none;align=left;verticalAlign=top;spacingLeft=4;spacingRight=4;overflow=hidden;rotatable=0;points=[[0,0.5],[1,0.5]];portConstraint=eastwest;whiteSpace=wrap;html=1;" vertex="1" parent="oG5_mvqdqvmXoVqTaZC8-9">
          <mxGeometry y="372" width="230" height="28" as="geometry" />
        </mxCell>
        <mxCell id="oG5_mvqdqvmXoVqTaZC8-13" value="IncomeHandler" style="swimlane;fontStyle=1;align=center;verticalAlign=top;childLayout=stackLayout;horizontal=1;startSize=26;horizontalStack=0;resizeParent=1;resizeParentMax=0;resizeLast=0;collapsible=1;marginBottom=0;whiteSpace=wrap;html=1;" vertex="1" parent="1">
          <mxGeometry x="510" y="10" width="300" height="866" as="geometry" />
        </mxCell>
        <mxCell id="oG5_mvqdqvmXoVqTaZC8-14" value="- incomeIndex: Dataframe" style="text;strokeColor=none;fillColor=none;align=left;verticalAlign=top;spacingLeft=4;spacingRight=4;overflow=hidden;rotatable=0;points=[[0,0.5],[1,0.5]];portConstraint=eastwest;whiteSpace=wrap;html=1;" vertex="1" parent="oG5_mvqdqvmXoVqTaZC8-13">
          <mxGeometry y="26" width="300" height="26" as="geometry" />
        </mxCell>
        <mxCell id="oG5_mvqdqvmXoVqTaZC8-51" value="- gdpLabourShare: Dataframe" style="text;strokeColor=none;fillColor=none;align=left;verticalAlign=top;spacingLeft=4;spacingRight=4;overflow=hidden;rotatable=0;points=[[0,0.5],[1,0.5]];portConstraint=eastwest;whiteSpace=wrap;html=1;" vertex="1" parent="oG5_mvqdqvmXoVqTaZC8-13">
          <mxGeometry y="52" width="300" height="26" as="geometry" />
        </mxCell>
        <mxCell id="oG5_mvqdqvmXoVqTaZC8-52" value="- grossFixedCapitalFormation: Dataframe" style="text;strokeColor=none;fillColor=none;align=left;verticalAlign=top;spacingLeft=4;spacingRight=4;overflow=hidden;rotatable=0;points=[[0,0.5],[1,0.5]];portConstraint=eastwest;whiteSpace=wrap;html=1;" vertex="1" parent="oG5_mvqdqvmXoVqTaZC8-13">
          <mxGeometry y="78" width="300" height="26" as="geometry" />
        </mxCell>
        <mxCell id="oG5_mvqdqvmXoVqTaZC8-53" value="- gdpTotal: Dataframe" style="text;strokeColor=none;fillColor=none;align=left;verticalAlign=top;spacingLeft=4;spacingRight=4;overflow=hidden;rotatable=0;points=[[0,0.5],[1,0.5]];portConstraint=eastwest;whiteSpace=wrap;html=1;" vertex="1" parent="oG5_mvqdqvmXoVqTaZC8-13">
          <mxGeometry y="104" width="300" height="26" as="geometry" />
        </mxCell>
        <mxCell id="oG5_mvqdqvmXoVqTaZC8-54" value="- gdpPerCapita: Dataframe" style="text;strokeColor=none;fillColor=none;align=left;verticalAlign=top;spacingLeft=4;spacingRight=4;overflow=hidden;rotatable=0;points=[[0,0.5],[1,0.5]];portConstraint=eastwest;whiteSpace=wrap;html=1;" vertex="1" parent="oG5_mvqdqvmXoVqTaZC8-13">
          <mxGeometry y="130" width="300" height="26" as="geometry" />
        </mxCell>
        <mxCell id="oG5_mvqdqvmXoVqTaZC8-55" value="- gniPerCapita: Dataframe" style="text;strokeColor=none;fillColor=none;align=left;verticalAlign=top;spacingLeft=4;spacingRight=4;overflow=hidden;rotatable=0;points=[[0,0.5],[1,0.5]];portConstraint=eastwest;whiteSpace=wrap;html=1;" vertex="1" parent="oG5_mvqdqvmXoVqTaZC8-13">
          <mxGeometry y="156" width="300" height="26" as="geometry" />
        </mxCell>
        <mxCell id="oG5_mvqdqvmXoVqTaZC8-56" value="- estimatedGniMale: Dataframe" style="text;strokeColor=none;fillColor=none;align=left;verticalAlign=top;spacingLeft=4;spacingRight=4;overflow=hidden;rotatable=0;points=[[0,0.5],[1,0.5]];portConstraint=eastwest;whiteSpace=wrap;html=1;" vertex="1" parent="oG5_mvqdqvmXoVqTaZC8-13">
          <mxGeometry y="182" width="300" height="26" as="geometry" />
        </mxCell>
        <mxCell id="oG5_mvqdqvmXoVqTaZC8-57" value="- estimatedGniFemale: Dataframe" style="text;strokeColor=none;fillColor=none;align=left;verticalAlign=top;spacingLeft=4;spacingRight=4;overflow=hidden;rotatable=0;points=[[0,0.5],[1,0.5]];portConstraint=eastwest;whiteSpace=wrap;html=1;" vertex="1" parent="oG5_mvqdqvmXoVqTaZC8-13">
          <mxGeometry y="208" width="300" height="26" as="geometry" />
        </mxCell>
        <mxCell id="oG5_mvqdqvmXoVqTaZC8-58" value="- domesticCredits: Dataframe" style="text;strokeColor=none;fillColor=none;align=left;verticalAlign=top;spacingLeft=4;spacingRight=4;overflow=hidden;rotatable=0;points=[[0,0.5],[1,0.5]];portConstraint=eastwest;whiteSpace=wrap;html=1;" vertex="1" parent="oG5_mvqdqvmXoVqTaZC8-13">
          <mxGeometry y="234" width="300" height="26" as="geometry" />
        </mxCell>
        <mxCell id="oG5_mvqdqvmXoVqTaZC8-59" value="- excludeRows: string[ ]" style="text;strokeColor=none;fillColor=none;align=left;verticalAlign=top;spacingLeft=4;spacingRight=4;overflow=hidden;rotatable=0;points=[[0,0.5],[1,0.5]];portConstraint=eastwest;whiteSpace=wrap;html=1;" vertex="1" parent="oG5_mvqdqvmXoVqTaZC8-13">
          <mxGeometry y="260" width="300" height="26" as="geometry" />
        </mxCell>
        <mxCell id="oG5_mvqdqvmXoVqTaZC8-61" value="- incomeIndexFinal: Dataframe" style="text;strokeColor=none;fillColor=none;align=left;verticalAlign=top;spacingLeft=4;spacingRight=4;overflow=hidden;rotatable=0;points=[[0,0.5],[1,0.5]];portConstraint=eastwest;whiteSpace=wrap;html=1;" vertex="1" parent="oG5_mvqdqvmXoVqTaZC8-13">
          <mxGeometry y="286" width="300" height="26" as="geometry" />
        </mxCell>
        <mxCell id="oG5_mvqdqvmXoVqTaZC8-62" value="- gdpLabourShareFinal: Dataframe" style="text;strokeColor=none;fillColor=none;align=left;verticalAlign=top;spacingLeft=4;spacingRight=4;overflow=hidden;rotatable=0;points=[[0,0.5],[1,0.5]];portConstraint=eastwest;whiteSpace=wrap;html=1;" vertex="1" parent="oG5_mvqdqvmXoVqTaZC8-13">
          <mxGeometry y="312" width="300" height="26" as="geometry" />
        </mxCell>
        <mxCell id="oG5_mvqdqvmXoVqTaZC8-63" value="- grossFixedCapitalFormationFinal: Dataframe" style="text;strokeColor=none;fillColor=none;align=left;verticalAlign=top;spacingLeft=4;spacingRight=4;overflow=hidden;rotatable=0;points=[[0,0.5],[1,0.5]];portConstraint=eastwest;whiteSpace=wrap;html=1;" vertex="1" parent="oG5_mvqdqvmXoVqTaZC8-13">
          <mxGeometry y="338" width="300" height="26" as="geometry" />
        </mxCell>
        <mxCell id="oG5_mvqdqvmXoVqTaZC8-64" value="- gdpTotalFinal: Dataframe" style="text;strokeColor=none;fillColor=none;align=left;verticalAlign=top;spacingLeft=4;spacingRight=4;overflow=hidden;rotatable=0;points=[[0,0.5],[1,0.5]];portConstraint=eastwest;whiteSpace=wrap;html=1;" vertex="1" parent="oG5_mvqdqvmXoVqTaZC8-13">
          <mxGeometry y="364" width="300" height="26" as="geometry" />
        </mxCell>
        <mxCell id="oG5_mvqdqvmXoVqTaZC8-65" value="- gdpPerCapitaFinal: Dataframe" style="text;strokeColor=none;fillColor=none;align=left;verticalAlign=top;spacingLeft=4;spacingRight=4;overflow=hidden;rotatable=0;points=[[0,0.5],[1,0.5]];portConstraint=eastwest;whiteSpace=wrap;html=1;" vertex="1" parent="oG5_mvqdqvmXoVqTaZC8-13">
          <mxGeometry y="390" width="300" height="26" as="geometry" />
        </mxCell>
        <mxCell id="oG5_mvqdqvmXoVqTaZC8-66" value="- gniPerCapitaFinal: Dataframe" style="text;strokeColor=none;fillColor=none;align=left;verticalAlign=top;spacingLeft=4;spacingRight=4;overflow=hidden;rotatable=0;points=[[0,0.5],[1,0.5]];portConstraint=eastwest;whiteSpace=wrap;html=1;" vertex="1" parent="oG5_mvqdqvmXoVqTaZC8-13">
          <mxGeometry y="416" width="300" height="26" as="geometry" />
        </mxCell>
        <mxCell id="oG5_mvqdqvmXoVqTaZC8-67" value="- estimatedGniMaleFinal: Dataframe" style="text;strokeColor=none;fillColor=none;align=left;verticalAlign=top;spacingLeft=4;spacingRight=4;overflow=hidden;rotatable=0;points=[[0,0.5],[1,0.5]];portConstraint=eastwest;whiteSpace=wrap;html=1;" vertex="1" parent="oG5_mvqdqvmXoVqTaZC8-13">
          <mxGeometry y="442" width="300" height="26" as="geometry" />
        </mxCell>
        <mxCell id="oG5_mvqdqvmXoVqTaZC8-68" value="- estimatedGniFemaleFinal: Dataframe" style="text;strokeColor=none;fillColor=none;align=left;verticalAlign=top;spacingLeft=4;spacingRight=4;overflow=hidden;rotatable=0;points=[[0,0.5],[1,0.5]];portConstraint=eastwest;whiteSpace=wrap;html=1;" vertex="1" parent="oG5_mvqdqvmXoVqTaZC8-13">
          <mxGeometry y="468" width="300" height="26" as="geometry" />
        </mxCell>
        <mxCell id="oG5_mvqdqvmXoVqTaZC8-69" value="- domesticCreditsFinal: Dataframe" style="text;strokeColor=none;fillColor=none;align=left;verticalAlign=top;spacingLeft=4;spacingRight=4;overflow=hidden;rotatable=0;points=[[0,0.5],[1,0.5]];portConstraint=eastwest;whiteSpace=wrap;html=1;" vertex="1" parent="oG5_mvqdqvmXoVqTaZC8-13">
          <mxGeometry y="494" width="300" height="26" as="geometry" />
        </mxCell>
        <mxCell id="oG5_mvqdqvmXoVqTaZC8-15" value="" style="line;strokeWidth=1;fillColor=none;align=left;verticalAlign=middle;spacingTop=-1;spacingLeft=3;spacingRight=3;rotatable=0;labelPosition=right;points=[];portConstraint=eastwest;strokeColor=inherit;" vertex="1" parent="oG5_mvqdqvmXoVqTaZC8-13">
          <mxGeometry y="520" width="300" height="8" as="geometry" />
        </mxCell>
        <mxCell id="oG5_mvqdqvmXoVqTaZC8-16" value="+ __init__(): void" style="text;strokeColor=none;fillColor=none;align=left;verticalAlign=top;spacingLeft=4;spacingRight=4;overflow=hidden;rotatable=0;points=[[0,0.5],[1,0.5]];portConstraint=eastwest;whiteSpace=wrap;html=1;" vertex="1" parent="oG5_mvqdqvmXoVqTaZC8-13">
          <mxGeometry y="528" width="300" height="26" as="geometry" />
        </mxCell>
        <mxCell id="oG5_mvqdqvmXoVqTaZC8-70" value="+ readIncomeFiles(): void" style="text;strokeColor=none;fillColor=none;align=left;verticalAlign=top;spacingLeft=4;spacingRight=4;overflow=hidden;rotatable=0;points=[[0,0.5],[1,0.5]];portConstraint=eastwest;whiteSpace=wrap;html=1;" vertex="1" parent="oG5_mvqdqvmXoVqTaZC8-13">
          <mxGeometry y="554" width="300" height="26" as="geometry" />
        </mxCell>
        <mxCell id="oG5_mvqdqvmXoVqTaZC8-71" value="+ getUniqueCountries(): void" style="text;strokeColor=none;fillColor=none;align=left;verticalAlign=top;spacingLeft=4;spacingRight=4;overflow=hidden;rotatable=0;points=[[0,0.5],[1,0.5]];portConstraint=eastwest;whiteSpace=wrap;html=1;" vertex="1" parent="oG5_mvqdqvmXoVqTaZC8-13">
          <mxGeometry y="580" width="300" height="26" as="geometry" />
        </mxCell>
        <mxCell id="oG5_mvqdqvmXoVqTaZC8-72" value="+ setupPrimaryKeys(Dataframe): void" style="text;strokeColor=none;fillColor=none;align=left;verticalAlign=top;spacingLeft=4;spacingRight=4;overflow=hidden;rotatable=0;points=[[0,0.5],[1,0.5]];portConstraint=eastwest;whiteSpace=wrap;html=1;" vertex="1" parent="oG5_mvqdqvmXoVqTaZC8-13">
          <mxGeometry y="606" width="300" height="26" as="geometry" />
        </mxCell>
        <mxCell id="oG5_mvqdqvmXoVqTaZC8-73" value="+ interpolateMissingYears(): void" style="text;strokeColor=none;fillColor=none;align=left;verticalAlign=top;spacingLeft=4;spacingRight=4;overflow=hidden;rotatable=0;points=[[0,0.5],[1,0.5]];portConstraint=eastwest;whiteSpace=wrap;html=1;" vertex="1" parent="oG5_mvqdqvmXoVqTaZC8-13">
          <mxGeometry y="632" width="300" height="26" as="geometry" />
        </mxCell>
        <mxCell id="oG5_mvqdqvmXoVqTaZC8-74" value="+ restructureData(): void" style="text;strokeColor=none;fillColor=none;align=left;verticalAlign=top;spacingLeft=4;spacingRight=4;overflow=hidden;rotatable=0;points=[[0,0.5],[1,0.5]];portConstraint=eastwest;whiteSpace=wrap;html=1;" vertex="1" parent="oG5_mvqdqvmXoVqTaZC8-13">
          <mxGeometry y="658" width="300" height="26" as="geometry" />
        </mxCell>
        <mxCell id="oG5_mvqdqvmXoVqTaZC8-75" value="+ save(): void" style="text;strokeColor=none;fillColor=none;align=left;verticalAlign=top;spacingLeft=4;spacingRight=4;overflow=hidden;rotatable=0;points=[[0,0.5],[1,0.5]];portConstraint=eastwest;whiteSpace=wrap;html=1;" vertex="1" parent="oG5_mvqdqvmXoVqTaZC8-13">
          <mxGeometry y="684" width="300" height="26" as="geometry" />
        </mxCell>
        <mxCell id="oG5_mvqdqvmXoVqTaZC8-76" value="- _cleanUp(): void" style="text;strokeColor=none;fillColor=none;align=left;verticalAlign=top;spacingLeft=4;spacingRight=4;overflow=hidden;rotatable=0;points=[[0,0.5],[1,0.5]];portConstraint=eastwest;whiteSpace=wrap;html=1;" vertex="1" parent="oG5_mvqdqvmXoVqTaZC8-13">
          <mxGeometry y="710" width="300" height="26" as="geometry" />
        </mxCell>
        <mxCell id="oG5_mvqdqvmXoVqTaZC8-77" value="- _addPrimaryKey(Dataframe, Dataframe): Dataframe" style="text;strokeColor=none;fillColor=none;align=left;verticalAlign=top;spacingLeft=4;spacingRight=4;overflow=hidden;rotatable=0;points=[[0,0.5],[1,0.5]];portConstraint=eastwest;whiteSpace=wrap;html=1;" vertex="1" parent="oG5_mvqdqvmXoVqTaZC8-13">
          <mxGeometry y="736" width="300" height="26" as="geometry" />
        </mxCell>
        <mxCell id="oG5_mvqdqvmXoVqTaZC8-78" value="- _addMissingYearColumns(): void" style="text;strokeColor=none;fillColor=none;align=left;verticalAlign=top;spacingLeft=4;spacingRight=4;overflow=hidden;rotatable=0;points=[[0,0.5],[1,0.5]];portConstraint=eastwest;whiteSpace=wrap;html=1;" vertex="1" parent="oG5_mvqdqvmXoVqTaZC8-13">
          <mxGeometry y="762" width="300" height="26" as="geometry" />
        </mxCell>
        <mxCell id="oG5_mvqdqvmXoVqTaZC8-79" value="- _fillInInterpolationColumns(): void" style="text;strokeColor=none;fillColor=none;align=left;verticalAlign=top;spacingLeft=4;spacingRight=4;overflow=hidden;rotatable=0;points=[[0,0.5],[1,0.5]];portConstraint=eastwest;whiteSpace=wrap;html=1;" vertex="1" parent="oG5_mvqdqvmXoVqTaZC8-13">
          <mxGeometry y="788" width="300" height="26" as="geometry" />
        </mxCell>
        <mxCell id="oG5_mvqdqvmXoVqTaZC8-80" value="- _setNullForSQL(): void" style="text;strokeColor=none;fillColor=none;align=left;verticalAlign=top;spacingLeft=4;spacingRight=4;overflow=hidden;rotatable=0;points=[[0,0.5],[1,0.5]];portConstraint=eastwest;whiteSpace=wrap;html=1;" vertex="1" parent="oG5_mvqdqvmXoVqTaZC8-13">
          <mxGeometry y="814" width="300" height="26" as="geometry" />
        </mxCell>
        <mxCell id="oG5_mvqdqvmXoVqTaZC8-81" value="- _renameColumns(): void" style="text;strokeColor=none;fillColor=none;align=left;verticalAlign=top;spacingLeft=4;spacingRight=4;overflow=hidden;rotatable=0;points=[[0,0.5],[1,0.5]];portConstraint=eastwest;whiteSpace=wrap;html=1;" vertex="1" parent="oG5_mvqdqvmXoVqTaZC8-13">
          <mxGeometry y="840" width="300" height="26" as="geometry" />
        </mxCell>
        <mxCell id="oG5_mvqdqvmXoVqTaZC8-17" value="DataHandler" style="swimlane;fontStyle=1;align=center;verticalAlign=top;childLayout=stackLayout;horizontal=1;startSize=26;horizontalStack=0;resizeParent=1;resizeParentMax=0;resizeLast=0;collapsible=1;marginBottom=0;whiteSpace=wrap;html=1;" vertex="1" parent="1">
          <mxGeometry x="210" y="50" width="280" height="112" as="geometry" />
        </mxCell>
        <mxCell id="oG5_mvqdqvmXoVqTaZC8-18" value="- countryDict: DataFrame" style="text;strokeColor=none;fillColor=none;align=left;verticalAlign=top;spacingLeft=4;spacingRight=4;overflow=hidden;rotatable=0;points=[[0,0.5],[1,0.5]];portConstraint=eastwest;whiteSpace=wrap;html=1;" vertex="1" parent="oG5_mvqdqvmXoVqTaZC8-17">
          <mxGeometry y="26" width="280" height="26" as="geometry" />
        </mxCell>
        <mxCell id="oG5_mvqdqvmXoVqTaZC8-19" value="" style="line;strokeWidth=1;fillColor=none;align=left;verticalAlign=middle;spacingTop=-1;spacingLeft=3;spacingRight=3;rotatable=0;labelPosition=right;points=[];portConstraint=eastwest;strokeColor=inherit;" vertex="1" parent="oG5_mvqdqvmXoVqTaZC8-17">
          <mxGeometry y="52" width="280" height="8" as="geometry" />
        </mxCell>
        <mxCell id="oG5_mvqdqvmXoVqTaZC8-20" value="+ __init__(): void" style="text;strokeColor=none;fillColor=none;align=left;verticalAlign=top;spacingLeft=4;spacingRight=4;overflow=hidden;rotatable=0;points=[[0,0.5],[1,0.5]];portConstraint=eastwest;whiteSpace=wrap;html=1;" vertex="1" parent="oG5_mvqdqvmXoVqTaZC8-17">
          <mxGeometry y="60" width="280" height="26" as="geometry" />
        </mxCell>
        <mxCell id="oG5_mvqdqvmXoVqTaZC8-25" value="+ _alignCountryNames(DataFrame, string): void" style="text;strokeColor=none;fillColor=none;align=left;verticalAlign=top;spacingLeft=4;spacingRight=4;overflow=hidden;rotatable=0;points=[[0,0.5],[1,0.5]];portConstraint=eastwest;whiteSpace=wrap;html=1;" vertex="1" parent="oG5_mvqdqvmXoVqTaZC8-17">
          <mxGeometry y="86" width="280" height="26" as="geometry" />
        </mxCell>
        <mxCell id="oG5_mvqdqvmXoVqTaZC8-82" value="Use" style="endArrow=open;endSize=12;dashed=1;html=1;rounded=0;fontColor=none;noLabel=1;" edge="1" parent="1" source="oG5_mvqdqvmXoVqTaZC8-1" target="oG5_mvqdqvmXoVqTaZC8-5">
          <mxGeometry width="160" relative="1" as="geometry">
            <mxPoint x="370" y="450" as="sourcePoint" />
            <mxPoint x="530" y="450" as="targetPoint" />
          </mxGeometry>
        </mxCell>
        <mxCell id="oG5_mvqdqvmXoVqTaZC8-83" value="Use" style="endArrow=open;endSize=12;dashed=1;html=1;rounded=0;fontColor=none;noLabel=1;" edge="1" parent="1" source="oG5_mvqdqvmXoVqTaZC8-1" target="oG5_mvqdqvmXoVqTaZC8-9">
          <mxGeometry width="160" relative="1" as="geometry">
            <mxPoint x="437" y="134" as="sourcePoint" />
            <mxPoint x="240" y="320" as="targetPoint" />
          </mxGeometry>
        </mxCell>
        <mxCell id="oG5_mvqdqvmXoVqTaZC8-85" value="Use" style="endArrow=open;endSize=12;dashed=1;html=1;rounded=0;fontColor=none;noLabel=1;" edge="1" parent="1" source="oG5_mvqdqvmXoVqTaZC8-1" target="oG5_mvqdqvmXoVqTaZC8-13">
          <mxGeometry width="160" relative="1" as="geometry">
            <mxPoint x="490" y="190" as="sourcePoint" />
            <mxPoint x="490" y="346" as="targetPoint" />
          </mxGeometry>
        </mxCell>
        <mxCell id="oG5_mvqdqvmXoVqTaZC8-86" value="Extends" style="endArrow=block;endSize=16;endFill=0;html=1;rounded=0;fontColor=none;noLabel=1;" edge="1" parent="1" source="oG5_mvqdqvmXoVqTaZC8-5" target="oG5_mvqdqvmXoVqTaZC8-17">
          <mxGeometry width="160" relative="1" as="geometry">
            <mxPoint x="380" y="440" as="sourcePoint" />
            <mxPoint x="540" y="440" as="targetPoint" />
            <Array as="points" />
          </mxGeometry>
        </mxCell>
        <mxCell id="oG5_mvqdqvmXoVqTaZC8-88" value="Extends" style="endArrow=block;endSize=16;endFill=0;html=1;rounded=0;fontColor=none;noLabel=1;" edge="1" parent="1" source="oG5_mvqdqvmXoVqTaZC8-13" target="oG5_mvqdqvmXoVqTaZC8-17">
          <mxGeometry width="160" relative="1" as="geometry">
            <mxPoint x="450" y="290" as="sourcePoint" />
            <mxPoint x="450" y="172" as="targetPoint" />
            <Array as="points" />
          </mxGeometry>
        </mxCell>
        <mxCell id="oG5_mvqdqvmXoVqTaZC8-89" value="Extends" style="endArrow=block;endSize=16;endFill=0;html=1;rounded=0;fontColor=none;noLabel=1;" edge="1" parent="1" source="oG5_mvqdqvmXoVqTaZC8-9" target="oG5_mvqdqvmXoVqTaZC8-17">
          <mxGeometry width="160" relative="1" as="geometry">
            <mxPoint x="230" y="290" as="sourcePoint" />
            <mxPoint x="318" y="172" as="targetPoint" />
            <Array as="points" />
          </mxGeometry>
        </mxCell>
      </root>
    </mxGraphModel>
  </diagram>
</mxfile>
